<?xml version="1.0" encoding="utf-8" standalone="no"?>
<!DOCTYPE svg PUBLIC "-//W3C//DTD SVG 1.1//EN"
  "http://www.w3.org/Graphics/SVG/1.1/DTD/svg11.dtd">
<!-- Created with matplotlib (https://matplotlib.org/) -->
<svg height="360pt" version="1.1" viewBox="0 0 1080 360" width="1080pt" xmlns="http://www.w3.org/2000/svg" xmlns:xlink="http://www.w3.org/1999/xlink">
 <defs>
  <style type="text/css">
*{stroke-linecap:butt;stroke-linejoin:round;}
  </style>
 </defs>
 <g id="figure_1">
  <g id="patch_1">
   <path d="M 0 360 
L 1080 360 
L 1080 0 
L 0 0 
z
" style="fill:#ffffff;"/>
  </g>
  <g id="axes_1">
   <g id="patch_2">
    <path d="M 135 315 
L 515.454545 315 
L 515.454545 43.2 
L 135 43.2 
z
" style="fill:#ffffff;"/>
   </g>
   <g id="patch_3">
    <path clip-path="url(#p0751c0faaf)" d="M 152.293388 315 
L 159.210744 315 
L 159.210744 314.583831 
L 152.293388 314.583831 
z
" style="fill:#008000;"/>
   </g>
   <g id="patch_4">
    <path clip-path="url(#p0751c0faaf)" d="M 159.210744 315 
L 166.128099 315 
L 166.128099 315 
L 159.210744 315 
z
" style="fill:#008000;"/>
   </g>
   <g id="patch_5">
    <path clip-path="url(#p0751c0faaf)" d="M 166.128099 315 
L 173.045455 315 
L 173.045455 315 
L 166.128099 315 
z
" style="fill:#008000;"/>
   </g>
   <g id="patch_6">
    <path clip-path="url(#p0751c0faaf)" d="M 173.045455 315 
L 179.96281 315 
L 179.96281 314.583831 
L 173.045455 314.583831 
z
" style="fill:#008000;"/>
   </g>
   <g id="patch_7">
    <path clip-path="url(#p0751c0faaf)" d="M 179.96281 315 
L 186.880165 315 
L 186.880165 314.583831 
L 179.96281 314.583831 
z
" style="fill:#008000;"/>
   </g>
   <g id="patch_8">
    <path clip-path="url(#p0751c0faaf)" d="M 186.880165 315 
L 193.797521 315 
L 193.797521 314.583831 
L 186.880165 314.583831 
z
" style="fill:#008000;"/>
   </g>
   <g id="patch_9">
    <path clip-path="url(#p0751c0faaf)" d="M 193.797521 315 
L 200.714876 315 
L 200.714876 312.086817 
L 193.797521 312.086817 
z
" style="fill:#008000;"/>
   </g>
   <g id="patch_10">
    <path clip-path="url(#p0751c0faaf)" d="M 200.714876 315 
L 207.632231 315 
L 207.632231 312.502986 
L 200.714876 312.502986 
z
" style="fill:#008000;"/>
   </g>
   <g id="patch_11">
    <path clip-path="url(#p0751c0faaf)" d="M 207.632231 315 
L 214.549587 315 
L 214.549587 310.422141 
L 207.632231 310.422141 
z
" style="fill:#008000;"/>
   </g>
   <g id="patch_12">
    <path clip-path="url(#p0751c0faaf)" d="M 214.549587 315 
L 221.466942 315 
L 221.466942 309.589802 
L 214.549587 309.589802 
z
" style="fill:#008000;"/>
   </g>
   <g id="patch_13">
    <path clip-path="url(#p0751c0faaf)" d="M 221.466942 315 
L 228.384298 315 
L 228.384298 307.092788 
L 221.466942 307.092788 
z
" style="fill:#008000;"/>
   </g>
   <g id="patch_14">
    <path clip-path="url(#p0751c0faaf)" d="M 228.384298 315 
L 235.301653 315 
L 235.301653 305.844281 
L 228.384298 305.844281 
z
" style="fill:#008000;"/>
   </g>
   <g id="patch_15">
    <path clip-path="url(#p0751c0faaf)" d="M 235.301653 315 
L 242.219008 315 
L 242.219008 295.440055 
L 235.301653 295.440055 
z
" style="fill:#008000;"/>
   </g>
   <g id="patch_16">
    <path clip-path="url(#p0751c0faaf)" d="M 242.219008 315 
L 249.136364 315 
L 249.136364 292.110703 
L 242.219008 292.110703 
z
" style="fill:#008000;"/>
   </g>
   <g id="patch_17">
    <path clip-path="url(#p0751c0faaf)" d="M 249.136364 315 
L 256.053719 315 
L 256.053719 281.290308 
L 249.136364 281.290308 
z
" style="fill:#008000;"/>
   </g>
   <g id="patch_18">
    <path clip-path="url(#p0751c0faaf)" d="M 256.053719 315 
L 262.971074 315 
L 262.971074 275.047772 
L 256.053719 275.047772 
z
" style="fill:#008000;"/>
   </g>
   <g id="patch_19">
    <path clip-path="url(#p0751c0faaf)" d="M 262.971074 315 
L 269.88843 315 
L 269.88843 257.984842 
L 262.971074 257.984842 
z
" style="fill:#008000;"/>
   </g>
   <g id="patch_20">
    <path clip-path="url(#p0751c0faaf)" d="M 269.88843 315 
L 276.805785 315 
L 276.805785 251.326137 
L 269.88843 251.326137 
z
" style="fill:#008000;"/>
   </g>
   <g id="patch_21">
    <path clip-path="url(#p0751c0faaf)" d="M 276.805785 315 
L 283.72314 315 
L 283.72314 227.604502 
L 276.805785 227.604502 
z
" style="fill:#008000;"/>
   </g>
   <g id="patch_22">
    <path clip-path="url(#p0751c0faaf)" d="M 283.72314 315 
L 290.640496 315 
L 290.640496 195.143316 
L 283.72314 195.143316 
z
" style="fill:#008000;"/>
   </g>
   <g id="patch_23">
    <path clip-path="url(#p0751c0faaf)" d="M 290.640496 315 
L 297.557851 315 
L 297.557851 190.981626 
L 290.640496 190.981626 
z
" style="fill:#008000;"/>
   </g>
   <g id="patch_24">
    <path clip-path="url(#p0751c0faaf)" d="M 297.557851 315 
L 304.475207 315 
L 304.475207 148.116215 
L 297.557851 148.116215 
z
" style="fill:#008000;"/>
   </g>
   <g id="patch_25">
    <path clip-path="url(#p0751c0faaf)" d="M 304.475207 315 
L 311.392562 315 
L 311.392562 131.053284 
L 304.475207 131.053284 
z
" style="fill:#008000;"/>
   </g>
   <g id="patch_26">
    <path clip-path="url(#p0751c0faaf)" d="M 311.392562 315 
L 318.309917 315 
L 318.309917 119.400551 
L 311.392562 119.400551 
z
" style="fill:#008000;"/>
   </g>
   <g id="patch_27">
    <path clip-path="url(#p0751c0faaf)" d="M 318.309917 315 
L 325.227273 315 
L 325.227273 106.91548 
L 318.309917 106.91548 
z
" style="fill:#008000;"/>
   </g>
   <g id="patch_28">
    <path clip-path="url(#p0751c0faaf)" d="M 325.227273 315 
L 332.144628 315 
L 332.144628 86.107028 
L 325.227273 86.107028 
z
" style="fill:#008000;"/>
   </g>
   <g id="patch_29">
    <path clip-path="url(#p0751c0faaf)" d="M 332.144628 315 
L 339.061983 315 
L 339.061983 62.385393 
L 332.144628 62.385393 
z
" style="fill:#008000;"/>
   </g>
   <g id="patch_30">
    <path clip-path="url(#p0751c0faaf)" d="M 339.061983 315 
L 345.979339 315 
L 345.979339 67.79559 
L 339.061983 67.79559 
z
" style="fill:#008000;"/>
   </g>
   <g id="patch_31">
    <path clip-path="url(#p0751c0faaf)" d="M 345.979339 315 
L 352.896694 315 
L 352.896694 56.142857 
L 345.979339 56.142857 
z
" style="fill:#008000;"/>
   </g>
   <g id="patch_32">
    <path clip-path="url(#p0751c0faaf)" d="M 352.896694 315 
L 359.81405 315 
L 359.81405 90.684887 
L 352.896694 90.684887 
z
" style="fill:#008000;"/>
   </g>
   <g id="patch_33">
    <path clip-path="url(#p0751c0faaf)" d="M 359.81405 315 
L 366.731405 315 
L 366.731405 80.280661 
L 359.81405 80.280661 
z
" style="fill:#008000;"/>
   </g>
   <g id="patch_34">
    <path clip-path="url(#p0751c0faaf)" d="M 366.731405 315 
L 373.64876 315 
L 373.64876 106.499311 
L 366.731405 106.499311 
z
" style="fill:#008000;"/>
   </g>
   <g id="patch_35">
    <path clip-path="url(#p0751c0faaf)" d="M 373.64876 315 
L 380.566116 315 
L 380.566116 105.250804 
L 373.64876 105.250804 
z
" style="fill:#008000;"/>
   </g>
   <g id="patch_36">
    <path clip-path="url(#p0751c0faaf)" d="M 380.566116 315 
L 387.483471 315 
L 387.483471 142.289848 
L 380.566116 142.289848 
z
" style="fill:#008000;"/>
   </g>
   <g id="patch_37">
    <path clip-path="url(#p0751c0faaf)" d="M 387.483471 315 
L 394.400826 315 
L 394.400826 166.011484 
L 387.483471 166.011484 
z
" style="fill:#008000;"/>
   </g>
   <g id="patch_38">
    <path clip-path="url(#p0751c0faaf)" d="M 394.400826 315 
L 401.318182 315 
L 401.318182 179.328893 
L 394.400826 179.328893 
z
" style="fill:#008000;"/>
   </g>
   <g id="patch_39">
    <path clip-path="url(#p0751c0faaf)" d="M 401.318182 315 
L 408.235537 315 
L 408.235537 201.385852 
L 401.318182 201.385852 
z
" style="fill:#008000;"/>
   </g>
   <g id="patch_40">
    <path clip-path="url(#p0751c0faaf)" d="M 408.235537 315 
L 415.152893 315 
L 415.152893 220.529628 
L 408.235537 220.529628 
z
" style="fill:#008000;"/>
   </g>
   <g id="patch_41">
    <path clip-path="url(#p0751c0faaf)" d="M 415.152893 315 
L 422.070248 315 
L 422.070248 245.083601 
L 415.152893 245.083601 
z
" style="fill:#008000;"/>
   </g>
   <g id="patch_42">
    <path clip-path="url(#p0751c0faaf)" d="M 422.070248 315 
L 428.987603 315 
L 428.987603 258.81718 
L 422.070248 258.81718 
z
" style="fill:#008000;"/>
   </g>
   <g id="patch_43">
    <path clip-path="url(#p0751c0faaf)" d="M 428.987603 315 
L 435.904959 315 
L 435.904959 272.966927 
L 428.987603 272.966927 
z
" style="fill:#008000;"/>
   </g>
   <g id="patch_44">
    <path clip-path="url(#p0751c0faaf)" d="M 435.904959 315 
L 442.822314 315 
L 442.822314 278.377124 
L 435.904959 278.377124 
z
" style="fill:#008000;"/>
   </g>
   <g id="patch_45">
    <path clip-path="url(#p0751c0faaf)" d="M 442.822314 315 
L 449.739669 315 
L 449.739669 288.365181 
L 442.822314 288.365181 
z
" style="fill:#008000;"/>
   </g>
   <g id="patch_46">
    <path clip-path="url(#p0751c0faaf)" d="M 449.739669 315 
L 456.657025 315 
L 456.657025 299.185576 
L 449.739669 299.185576 
z
" style="fill:#008000;"/>
   </g>
   <g id="patch_47">
    <path clip-path="url(#p0751c0faaf)" d="M 456.657025 315 
L 463.57438 315 
L 463.57438 307.092788 
L 456.657025 307.092788 
z
" style="fill:#008000;"/>
   </g>
   <g id="patch_48">
    <path clip-path="url(#p0751c0faaf)" d="M 463.57438 315 
L 470.491736 315 
L 470.491736 308.757464 
L 463.57438 308.757464 
z
" style="fill:#008000;"/>
   </g>
   <g id="patch_49">
    <path clip-path="url(#p0751c0faaf)" d="M 470.491736 315 
L 477.409091 315 
L 477.409091 310.83831 
L 470.491736 310.83831 
z
" style="fill:#008000;"/>
   </g>
   <g id="patch_50">
    <path clip-path="url(#p0751c0faaf)" d="M 477.409091 315 
L 484.326446 315 
L 484.326446 310.83831 
L 477.409091 310.83831 
z
" style="fill:#008000;"/>
   </g>
   <g id="patch_51">
    <path clip-path="url(#p0751c0faaf)" d="M 484.326446 315 
L 491.243802 315 
L 491.243802 312.919155 
L 484.326446 312.919155 
z
" style="fill:#008000;"/>
   </g>
   <g id="patch_52">
    <path clip-path="url(#p0751c0faaf)" d="M 491.243802 315 
L 498.161157 315 
L 498.161157 312.086817 
L 491.243802 312.086817 
z
" style="fill:#008000;"/>
   </g>
   <g id="matplotlib.axis_1">
    <g id="xtick_1">
     <g id="line2d_1">
      <defs>
       <path d="M 0 0 
L 0 3.5 
" id="mb261cb09e4" style="stroke:#000000;stroke-width:0.8;"/>
      </defs>
      <g>
       <use style="stroke:#000000;stroke-width:0.8;" x="159.369384" xlink:href="#mb261cb09e4" y="315"/>
      </g>
     </g>
     <g id="text_1">
      <!-- −2 -->
      <defs>
       <path d="M 10.59375 35.5 
L 73.1875 35.5 
L 73.1875 27.203125 
L 10.59375 27.203125 
z
" id="DejaVuSans-8722"/>
       <path d="M 19.1875 8.296875 
L 53.609375 8.296875 
L 53.609375 0 
L 7.328125 0 
L 7.328125 8.296875 
Q 12.9375 14.109375 22.625 23.890625 
Q 32.328125 33.6875 34.8125 36.53125 
Q 39.546875 41.84375 41.421875 45.53125 
Q 43.3125 49.21875 43.3125 52.78125 
Q 43.3125 58.59375 39.234375 62.25 
Q 35.15625 65.921875 28.609375 65.921875 
Q 23.96875 65.921875 18.8125 64.3125 
Q 13.671875 62.703125 7.8125 59.421875 
L 7.8125 69.390625 
Q 13.765625 71.78125 18.9375 73 
Q 24.125 74.21875 28.421875 74.21875 
Q 39.75 74.21875 46.484375 68.546875 
Q 53.21875 62.890625 53.21875 53.421875 
Q 53.21875 48.921875 51.53125 44.890625 
Q 49.859375 40.875 45.40625 35.40625 
Q 44.1875 33.984375 37.640625 27.21875 
Q 31.109375 20.453125 19.1875 8.296875 
z
" id="DejaVuSans-50"/>
      </defs>
      <g transform="translate(151.99829 329.598437)scale(0.1 -0.1)">
       <use xlink:href="#DejaVuSans-8722"/>
       <use x="83.789062" xlink:href="#DejaVuSans-50"/>
      </g>
     </g>
    </g>
    <g id="xtick_2">
     <g id="line2d_2">
      <g>
       <use style="stroke:#000000;stroke-width:0.8;" x="205.786001" xlink:href="#mb261cb09e4" y="315"/>
      </g>
     </g>
     <g id="text_2">
      <!-- −1 -->
      <defs>
       <path d="M 12.40625 8.296875 
L 28.515625 8.296875 
L 28.515625 63.921875 
L 10.984375 60.40625 
L 10.984375 69.390625 
L 28.421875 72.90625 
L 38.28125 72.90625 
L 38.28125 8.296875 
L 54.390625 8.296875 
L 54.390625 0 
L 12.40625 0 
z
" id="DejaVuSans-49"/>
      </defs>
      <g transform="translate(198.414907 329.598437)scale(0.1 -0.1)">
       <use xlink:href="#DejaVuSans-8722"/>
       <use x="83.789062" xlink:href="#DejaVuSans-49"/>
      </g>
     </g>
    </g>
    <g id="xtick_3">
     <g id="line2d_3">
      <g>
       <use style="stroke:#000000;stroke-width:0.8;" x="252.202618" xlink:href="#mb261cb09e4" y="315"/>
      </g>
     </g>
     <g id="text_3">
      <!-- 0 -->
      <defs>
       <path d="M 31.78125 66.40625 
Q 24.171875 66.40625 20.328125 58.90625 
Q 16.5 51.421875 16.5 36.375 
Q 16.5 21.390625 20.328125 13.890625 
Q 24.171875 6.390625 31.78125 6.390625 
Q 39.453125 6.390625 43.28125 13.890625 
Q 47.125 21.390625 47.125 36.375 
Q 47.125 51.421875 43.28125 58.90625 
Q 39.453125 66.40625 31.78125 66.40625 
z
M 31.78125 74.21875 
Q 44.046875 74.21875 50.515625 64.515625 
Q 56.984375 54.828125 56.984375 36.375 
Q 56.984375 17.96875 50.515625 8.265625 
Q 44.046875 -1.421875 31.78125 -1.421875 
Q 19.53125 -1.421875 13.0625 8.265625 
Q 6.59375 17.96875 6.59375 36.375 
Q 6.59375 54.828125 13.0625 64.515625 
Q 19.53125 74.21875 31.78125 74.21875 
z
" id="DejaVuSans-48"/>
      </defs>
      <g transform="translate(249.021368 329.598437)scale(0.1 -0.1)">
       <use xlink:href="#DejaVuSans-48"/>
      </g>
     </g>
    </g>
    <g id="xtick_4">
     <g id="line2d_4">
      <g>
       <use style="stroke:#000000;stroke-width:0.8;" x="298.619235" xlink:href="#mb261cb09e4" y="315"/>
      </g>
     </g>
     <g id="text_4">
      <!-- 1 -->
      <g transform="translate(295.437985 329.598437)scale(0.1 -0.1)">
       <use xlink:href="#DejaVuSans-49"/>
      </g>
     </g>
    </g>
    <g id="xtick_5">
     <g id="line2d_5">
      <g>
       <use style="stroke:#000000;stroke-width:0.8;" x="345.035851" xlink:href="#mb261cb09e4" y="315"/>
      </g>
     </g>
     <g id="text_5">
      <!-- 2 -->
      <g transform="translate(341.854601 329.598437)scale(0.1 -0.1)">
       <use xlink:href="#DejaVuSans-50"/>
      </g>
     </g>
    </g>
    <g id="xtick_6">
     <g id="line2d_6">
      <g>
       <use style="stroke:#000000;stroke-width:0.8;" x="391.452468" xlink:href="#mb261cb09e4" y="315"/>
      </g>
     </g>
     <g id="text_6">
      <!-- 3 -->
      <defs>
       <path d="M 40.578125 39.3125 
Q 47.65625 37.796875 51.625 33 
Q 55.609375 28.21875 55.609375 21.1875 
Q 55.609375 10.40625 48.1875 4.484375 
Q 40.765625 -1.421875 27.09375 -1.421875 
Q 22.515625 -1.421875 17.65625 -0.515625 
Q 12.796875 0.390625 7.625 2.203125 
L 7.625 11.71875 
Q 11.71875 9.328125 16.59375 8.109375 
Q 21.484375 6.890625 26.8125 6.890625 
Q 36.078125 6.890625 40.9375 10.546875 
Q 45.796875 14.203125 45.796875 21.1875 
Q 45.796875 27.640625 41.28125 31.265625 
Q 36.765625 34.90625 28.71875 34.90625 
L 20.21875 34.90625 
L 20.21875 43.015625 
L 29.109375 43.015625 
Q 36.375 43.015625 40.234375 45.921875 
Q 44.09375 48.828125 44.09375 54.296875 
Q 44.09375 59.90625 40.109375 62.90625 
Q 36.140625 65.921875 28.71875 65.921875 
Q 24.65625 65.921875 20.015625 65.03125 
Q 15.375 64.15625 9.8125 62.3125 
L 9.8125 71.09375 
Q 15.4375 72.65625 20.34375 73.4375 
Q 25.25 74.21875 29.59375 74.21875 
Q 40.828125 74.21875 47.359375 69.109375 
Q 53.90625 64.015625 53.90625 55.328125 
Q 53.90625 49.265625 50.4375 45.09375 
Q 46.96875 40.921875 40.578125 39.3125 
z
" id="DejaVuSans-51"/>
      </defs>
      <g transform="translate(388.271218 329.598437)scale(0.1 -0.1)">
       <use xlink:href="#DejaVuSans-51"/>
      </g>
     </g>
    </g>
    <g id="xtick_7">
     <g id="line2d_7">
      <g>
       <use style="stroke:#000000;stroke-width:0.8;" x="437.869085" xlink:href="#mb261cb09e4" y="315"/>
      </g>
     </g>
     <g id="text_7">
      <!-- 4 -->
      <defs>
       <path d="M 37.796875 64.3125 
L 12.890625 25.390625 
L 37.796875 25.390625 
z
M 35.203125 72.90625 
L 47.609375 72.90625 
L 47.609375 25.390625 
L 58.015625 25.390625 
L 58.015625 17.1875 
L 47.609375 17.1875 
L 47.609375 0 
L 37.796875 0 
L 37.796875 17.1875 
L 4.890625 17.1875 
L 4.890625 26.703125 
z
" id="DejaVuSans-52"/>
      </defs>
      <g transform="translate(434.687835 329.598437)scale(0.1 -0.1)">
       <use xlink:href="#DejaVuSans-52"/>
      </g>
     </g>
    </g>
    <g id="xtick_8">
     <g id="line2d_8">
      <g>
       <use style="stroke:#000000;stroke-width:0.8;" x="484.285702" xlink:href="#mb261cb09e4" y="315"/>
      </g>
     </g>
     <g id="text_8">
      <!-- 5 -->
      <defs>
       <path d="M 10.796875 72.90625 
L 49.515625 72.90625 
L 49.515625 64.59375 
L 19.828125 64.59375 
L 19.828125 46.734375 
Q 21.96875 47.46875 24.109375 47.828125 
Q 26.265625 48.1875 28.421875 48.1875 
Q 40.625 48.1875 47.75 41.5 
Q 54.890625 34.8125 54.890625 23.390625 
Q 54.890625 11.625 47.5625 5.09375 
Q 40.234375 -1.421875 26.90625 -1.421875 
Q 22.3125 -1.421875 17.546875 -0.640625 
Q 12.796875 0.140625 7.71875 1.703125 
L 7.71875 11.625 
Q 12.109375 9.234375 16.796875 8.0625 
Q 21.484375 6.890625 26.703125 6.890625 
Q 35.15625 6.890625 40.078125 11.328125 
Q 45.015625 15.765625 45.015625 23.390625 
Q 45.015625 31 40.078125 35.4375 
Q 35.15625 39.890625 26.703125 39.890625 
Q 22.75 39.890625 18.8125 39.015625 
Q 14.890625 38.140625 10.796875 36.28125 
z
" id="DejaVuSans-53"/>
      </defs>
      <g transform="translate(481.104452 329.598437)scale(0.1 -0.1)">
       <use xlink:href="#DejaVuSans-53"/>
      </g>
     </g>
    </g>
    <g id="text_9">
     <!-- x -->
     <defs>
      <path d="M 54.890625 54.6875 
L 35.109375 28.078125 
L 55.90625 0 
L 45.3125 0 
L 29.390625 21.484375 
L 13.484375 0 
L 2.875 0 
L 24.125 28.609375 
L 4.6875 54.6875 
L 15.28125 54.6875 
L 29.78125 35.203125 
L 44.28125 54.6875 
z
" id="DejaVuSans-120"/>
     </defs>
     <g transform="translate(322.267898 343.276563)scale(0.1 -0.1)">
      <use xlink:href="#DejaVuSans-120"/>
     </g>
    </g>
   </g>
   <g id="matplotlib.axis_2">
    <g id="ytick_1">
     <g id="line2d_9">
      <defs>
       <path d="M 0 0 
L -3.5 0 
" id="md165a128a0" style="stroke:#000000;stroke-width:0.8;"/>
      </defs>
      <g>
       <use style="stroke:#000000;stroke-width:0.8;" x="135" xlink:href="#md165a128a0" y="315"/>
      </g>
     </g>
     <g id="text_10">
      <!-- 0.00 -->
      <defs>
       <path d="M 10.6875 12.40625 
L 21 12.40625 
L 21 0 
L 10.6875 0 
z
" id="DejaVuSans-46"/>
      </defs>
      <g transform="translate(105.734375 318.799219)scale(0.1 -0.1)">
       <use xlink:href="#DejaVuSans-48"/>
       <use x="63.623047" xlink:href="#DejaVuSans-46"/>
       <use x="95.410156" xlink:href="#DejaVuSans-48"/>
       <use x="159.033203" xlink:href="#DejaVuSans-48"/>
      </g>
     </g>
    </g>
    <g id="ytick_2">
     <g id="line2d_10">
      <g>
       <use style="stroke:#000000;stroke-width:0.8;" x="135" xlink:href="#md165a128a0" y="283.989671"/>
      </g>
     </g>
     <g id="text_11">
      <!-- 0.05 -->
      <g transform="translate(105.734375 287.78889)scale(0.1 -0.1)">
       <use xlink:href="#DejaVuSans-48"/>
       <use x="63.623047" xlink:href="#DejaVuSans-46"/>
       <use x="95.410156" xlink:href="#DejaVuSans-48"/>
       <use x="159.033203" xlink:href="#DejaVuSans-53"/>
      </g>
     </g>
    </g>
    <g id="ytick_3">
     <g id="line2d_11">
      <g>
       <use style="stroke:#000000;stroke-width:0.8;" x="135" xlink:href="#md165a128a0" y="252.979342"/>
      </g>
     </g>
     <g id="text_12">
      <!-- 0.10 -->
      <g transform="translate(105.734375 256.77856)scale(0.1 -0.1)">
       <use xlink:href="#DejaVuSans-48"/>
       <use x="63.623047" xlink:href="#DejaVuSans-46"/>
       <use x="95.410156" xlink:href="#DejaVuSans-49"/>
       <use x="159.033203" xlink:href="#DejaVuSans-48"/>
      </g>
     </g>
    </g>
    <g id="ytick_4">
     <g id="line2d_12">
      <g>
       <use style="stroke:#000000;stroke-width:0.8;" x="135" xlink:href="#md165a128a0" y="221.969012"/>
      </g>
     </g>
     <g id="text_13">
      <!-- 0.15 -->
      <g transform="translate(105.734375 225.768231)scale(0.1 -0.1)">
       <use xlink:href="#DejaVuSans-48"/>
       <use x="63.623047" xlink:href="#DejaVuSans-46"/>
       <use x="95.410156" xlink:href="#DejaVuSans-49"/>
       <use x="159.033203" xlink:href="#DejaVuSans-53"/>
      </g>
     </g>
    </g>
    <g id="ytick_5">
     <g id="line2d_13">
      <g>
       <use style="stroke:#000000;stroke-width:0.8;" x="135" xlink:href="#md165a128a0" y="190.958683"/>
      </g>
     </g>
     <g id="text_14">
      <!-- 0.20 -->
      <g transform="translate(105.734375 194.757902)scale(0.1 -0.1)">
       <use xlink:href="#DejaVuSans-48"/>
       <use x="63.623047" xlink:href="#DejaVuSans-46"/>
       <use x="95.410156" xlink:href="#DejaVuSans-50"/>
       <use x="159.033203" xlink:href="#DejaVuSans-48"/>
      </g>
     </g>
    </g>
    <g id="ytick_6">
     <g id="line2d_14">
      <g>
       <use style="stroke:#000000;stroke-width:0.8;" x="135" xlink:href="#md165a128a0" y="159.948354"/>
      </g>
     </g>
     <g id="text_15">
      <!-- 0.25 -->
      <g transform="translate(105.734375 163.747573)scale(0.1 -0.1)">
       <use xlink:href="#DejaVuSans-48"/>
       <use x="63.623047" xlink:href="#DejaVuSans-46"/>
       <use x="95.410156" xlink:href="#DejaVuSans-50"/>
       <use x="159.033203" xlink:href="#DejaVuSans-53"/>
      </g>
     </g>
    </g>
    <g id="ytick_7">
     <g id="line2d_15">
      <g>
       <use style="stroke:#000000;stroke-width:0.8;" x="135" xlink:href="#md165a128a0" y="128.938025"/>
      </g>
     </g>
     <g id="text_16">
      <!-- 0.30 -->
      <g transform="translate(105.734375 132.737243)scale(0.1 -0.1)">
       <use xlink:href="#DejaVuSans-48"/>
       <use x="63.623047" xlink:href="#DejaVuSans-46"/>
       <use x="95.410156" xlink:href="#DejaVuSans-51"/>
       <use x="159.033203" xlink:href="#DejaVuSans-48"/>
      </g>
     </g>
    </g>
    <g id="ytick_8">
     <g id="line2d_16">
      <g>
       <use style="stroke:#000000;stroke-width:0.8;" x="135" xlink:href="#md165a128a0" y="97.927695"/>
      </g>
     </g>
     <g id="text_17">
      <!-- 0.35 -->
      <g transform="translate(105.734375 101.726914)scale(0.1 -0.1)">
       <use xlink:href="#DejaVuSans-48"/>
       <use x="63.623047" xlink:href="#DejaVuSans-46"/>
       <use x="95.410156" xlink:href="#DejaVuSans-51"/>
       <use x="159.033203" xlink:href="#DejaVuSans-53"/>
      </g>
     </g>
    </g>
    <g id="ytick_9">
     <g id="line2d_17">
      <g>
       <use style="stroke:#000000;stroke-width:0.8;" x="135" xlink:href="#md165a128a0" y="66.917366"/>
      </g>
     </g>
     <g id="text_18">
      <!-- 0.40 -->
      <g transform="translate(105.734375 70.716585)scale(0.1 -0.1)">
       <use xlink:href="#DejaVuSans-48"/>
       <use x="63.623047" xlink:href="#DejaVuSans-46"/>
       <use x="95.410156" xlink:href="#DejaVuSans-52"/>
       <use x="159.033203" xlink:href="#DejaVuSans-48"/>
      </g>
     </g>
    </g>
    <g id="text_19">
     <!-- y -->
     <defs>
      <path d="M 32.171875 -5.078125 
Q 28.375 -14.84375 24.75 -17.8125 
Q 21.140625 -20.796875 15.09375 -20.796875 
L 7.90625 -20.796875 
L 7.90625 -13.28125 
L 13.1875 -13.28125 
Q 16.890625 -13.28125 18.9375 -11.515625 
Q 21 -9.765625 23.484375 -3.21875 
L 25.09375 0.875 
L 2.984375 54.6875 
L 12.5 54.6875 
L 29.59375 11.921875 
L 46.6875 54.6875 
L 56.203125 54.6875 
z
" id="DejaVuSans-121"/>
     </defs>
     <g transform="translate(99.654687 182.059375)rotate(-90)scale(0.1 -0.1)">
      <use xlink:href="#DejaVuSans-121"/>
     </g>
    </g>
   </g>
   <g id="patch_53">
    <path d="M 135 315 
L 135 43.2 
" style="fill:none;stroke:#000000;stroke-linecap:square;stroke-linejoin:miter;stroke-width:0.8;"/>
   </g>
   <g id="patch_54">
    <path d="M 515.454545 315 
L 515.454545 43.2 
" style="fill:none;stroke:#000000;stroke-linecap:square;stroke-linejoin:miter;stroke-width:0.8;"/>
   </g>
   <g id="patch_55">
    <path d="M 135 315 
L 515.454545 315 
" style="fill:none;stroke:#000000;stroke-linecap:square;stroke-linejoin:miter;stroke-width:0.8;"/>
   </g>
   <g id="patch_56">
    <path d="M 135 43.2 
L 515.454545 43.2 
" style="fill:none;stroke:#000000;stroke-linecap:square;stroke-linejoin:miter;stroke-width:0.8;"/>
   </g>
   <g id="text_20">
    <!-- title -->
    <defs>
     <path d="M 18.3125 70.21875 
L 18.3125 54.6875 
L 36.8125 54.6875 
L 36.8125 47.703125 
L 18.3125 47.703125 
L 18.3125 18.015625 
Q 18.3125 11.328125 20.140625 9.421875 
Q 21.96875 7.515625 27.59375 7.515625 
L 36.8125 7.515625 
L 36.8125 0 
L 27.59375 0 
Q 17.1875 0 13.234375 3.875 
Q 9.28125 7.765625 9.28125 18.015625 
L 9.28125 47.703125 
L 2.6875 47.703125 
L 2.6875 54.6875 
L 9.28125 54.6875 
L 9.28125 70.21875 
z
" id="DejaVuSans-116"/>
     <path d="M 9.421875 54.6875 
L 18.40625 54.6875 
L 18.40625 0 
L 9.421875 0 
z
M 9.421875 75.984375 
L 18.40625 75.984375 
L 18.40625 64.59375 
L 9.421875 64.59375 
z
" id="DejaVuSans-105"/>
     <path d="M 9.421875 75.984375 
L 18.40625 75.984375 
L 18.40625 0 
L 9.421875 0 
z
" id="DejaVuSans-108"/>
     <path d="M 56.203125 29.59375 
L 56.203125 25.203125 
L 14.890625 25.203125 
Q 15.484375 15.921875 20.484375 11.0625 
Q 25.484375 6.203125 34.421875 6.203125 
Q 39.59375 6.203125 44.453125 7.46875 
Q 49.3125 8.734375 54.109375 11.28125 
L 54.109375 2.78125 
Q 49.265625 0.734375 44.1875 -0.34375 
Q 39.109375 -1.421875 33.890625 -1.421875 
Q 20.796875 -1.421875 13.15625 6.1875 
Q 5.515625 13.8125 5.515625 26.8125 
Q 5.515625 40.234375 12.765625 48.109375 
Q 20.015625 56 32.328125 56 
Q 43.359375 56 49.78125 48.890625 
Q 56.203125 41.796875 56.203125 29.59375 
z
M 47.21875 32.234375 
Q 47.125 39.59375 43.09375 43.984375 
Q 39.0625 48.390625 32.421875 48.390625 
Q 24.90625 48.390625 20.390625 44.140625 
Q 15.875 39.890625 15.1875 32.171875 
z
" id="DejaVuSans-101"/>
    </defs>
    <g transform="translate(313.497273 37.2)scale(0.12 -0.12)">
     <use xlink:href="#DejaVuSans-116"/>
     <use x="39.208984" xlink:href="#DejaVuSans-105"/>
     <use x="66.992188" xlink:href="#DejaVuSans-116"/>
     <use x="106.201172" xlink:href="#DejaVuSans-108"/>
     <use x="133.984375" xlink:href="#DejaVuSans-101"/>
    </g>
   </g>
  </g>
  <g id="axes_2">
   <g id="patch_57">
    <path d="M 591.545455 315 
L 972 315 
L 972 43.2 
L 591.545455 43.2 
z
" style="fill:#ffffff;"/>
   </g>
   <g id="patch_58">
    <path clip-path="url(#p22b61b7972)" d="M 608.838843 315 
L 615.756198 315 
L 615.756198 314.583831 
L 608.838843 314.583831 
z
" style="fill:#008000;"/>
   </g>
   <g id="patch_59">
    <path clip-path="url(#p22b61b7972)" d="M 615.756198 315 
L 622.673554 315 
L 622.673554 315 
L 615.756198 315 
z
" style="fill:#008000;"/>
   </g>
   <g id="patch_60">
    <path clip-path="url(#p22b61b7972)" d="M 622.673554 315 
L 629.590909 315 
L 629.590909 315 
L 622.673554 315 
z
" style="fill:#008000;"/>
   </g>
   <g id="patch_61">
    <path clip-path="url(#p22b61b7972)" d="M 629.590909 315 
L 636.508264 315 
L 636.508264 314.583831 
L 629.590909 314.583831 
z
" style="fill:#008000;"/>
   </g>
   <g id="patch_62">
    <path clip-path="url(#p22b61b7972)" d="M 636.508264 315 
L 643.42562 315 
L 643.42562 314.583831 
L 636.508264 314.583831 
z
" style="fill:#008000;"/>
   </g>
   <g id="patch_63">
    <path clip-path="url(#p22b61b7972)" d="M 643.42562 315 
L 650.342975 315 
L 650.342975 314.583831 
L 643.42562 314.583831 
z
" style="fill:#008000;"/>
   </g>
   <g id="patch_64">
    <path clip-path="url(#p22b61b7972)" d="M 650.342975 315 
L 657.260331 315 
L 657.260331 312.086817 
L 650.342975 312.086817 
z
" style="fill:#008000;"/>
   </g>
   <g id="patch_65">
    <path clip-path="url(#p22b61b7972)" d="M 657.260331 315 
L 664.177686 315 
L 664.177686 312.502986 
L 657.260331 312.502986 
z
" style="fill:#008000;"/>
   </g>
   <g id="patch_66">
    <path clip-path="url(#p22b61b7972)" d="M 664.177686 315 
L 671.095041 315 
L 671.095041 310.422141 
L 664.177686 310.422141 
z
" style="fill:#008000;"/>
   </g>
   <g id="patch_67">
    <path clip-path="url(#p22b61b7972)" d="M 671.095041 315 
L 678.012397 315 
L 678.012397 309.589802 
L 671.095041 309.589802 
z
" style="fill:#008000;"/>
   </g>
   <g id="patch_68">
    <path clip-path="url(#p22b61b7972)" d="M 678.012397 315 
L 684.929752 315 
L 684.929752 307.092788 
L 678.012397 307.092788 
z
" style="fill:#008000;"/>
   </g>
   <g id="patch_69">
    <path clip-path="url(#p22b61b7972)" d="M 684.929752 315 
L 691.847107 315 
L 691.847107 305.844281 
L 684.929752 305.844281 
z
" style="fill:#008000;"/>
   </g>
   <g id="patch_70">
    <path clip-path="url(#p22b61b7972)" d="M 691.847107 315 
L 698.764463 315 
L 698.764463 295.440055 
L 691.847107 295.440055 
z
" style="fill:#008000;"/>
   </g>
   <g id="patch_71">
    <path clip-path="url(#p22b61b7972)" d="M 698.764463 315 
L 705.681818 315 
L 705.681818 292.110703 
L 698.764463 292.110703 
z
" style="fill:#008000;"/>
   </g>
   <g id="patch_72">
    <path clip-path="url(#p22b61b7972)" d="M 705.681818 315 
L 712.599174 315 
L 712.599174 281.290308 
L 705.681818 281.290308 
z
" style="fill:#008000;"/>
   </g>
   <g id="patch_73">
    <path clip-path="url(#p22b61b7972)" d="M 712.599174 315 
L 719.516529 315 
L 719.516529 275.047772 
L 712.599174 275.047772 
z
" style="fill:#008000;"/>
   </g>
   <g id="patch_74">
    <path clip-path="url(#p22b61b7972)" d="M 719.516529 315 
L 726.433884 315 
L 726.433884 257.984842 
L 719.516529 257.984842 
z
" style="fill:#008000;"/>
   </g>
   <g id="patch_75">
    <path clip-path="url(#p22b61b7972)" d="M 726.433884 315 
L 733.35124 315 
L 733.35124 251.326137 
L 726.433884 251.326137 
z
" style="fill:#008000;"/>
   </g>
   <g id="patch_76">
    <path clip-path="url(#p22b61b7972)" d="M 733.35124 315 
L 740.268595 315 
L 740.268595 227.604502 
L 733.35124 227.604502 
z
" style="fill:#008000;"/>
   </g>
   <g id="patch_77">
    <path clip-path="url(#p22b61b7972)" d="M 740.268595 315 
L 747.18595 315 
L 747.18595 195.143316 
L 740.268595 195.143316 
z
" style="fill:#008000;"/>
   </g>
   <g id="patch_78">
    <path clip-path="url(#p22b61b7972)" d="M 747.18595 315 
L 754.103306 315 
L 754.103306 190.981626 
L 747.18595 190.981626 
z
" style="fill:#008000;"/>
   </g>
   <g id="patch_79">
    <path clip-path="url(#p22b61b7972)" d="M 754.103306 315 
L 761.020661 315 
L 761.020661 148.116215 
L 754.103306 148.116215 
z
" style="fill:#008000;"/>
   </g>
   <g id="patch_80">
    <path clip-path="url(#p22b61b7972)" d="M 761.020661 315 
L 767.938017 315 
L 767.938017 131.053284 
L 761.020661 131.053284 
z
" style="fill:#008000;"/>
   </g>
   <g id="patch_81">
    <path clip-path="url(#p22b61b7972)" d="M 767.938017 315 
L 774.855372 315 
L 774.855372 119.400551 
L 767.938017 119.400551 
z
" style="fill:#008000;"/>
   </g>
   <g id="patch_82">
    <path clip-path="url(#p22b61b7972)" d="M 774.855372 315 
L 781.772727 315 
L 781.772727 106.91548 
L 774.855372 106.91548 
z
" style="fill:#008000;"/>
   </g>
   <g id="patch_83">
    <path clip-path="url(#p22b61b7972)" d="M 781.772727 315 
L 788.690083 315 
L 788.690083 86.107028 
L 781.772727 86.107028 
z
" style="fill:#008000;"/>
   </g>
   <g id="patch_84">
    <path clip-path="url(#p22b61b7972)" d="M 788.690083 315 
L 795.607438 315 
L 795.607438 62.385393 
L 788.690083 62.385393 
z
" style="fill:#008000;"/>
   </g>
   <g id="patch_85">
    <path clip-path="url(#p22b61b7972)" d="M 795.607438 315 
L 802.524793 315 
L 802.524793 67.79559 
L 795.607438 67.79559 
z
" style="fill:#008000;"/>
   </g>
   <g id="patch_86">
    <path clip-path="url(#p22b61b7972)" d="M 802.524793 315 
L 809.442149 315 
L 809.442149 56.142857 
L 802.524793 56.142857 
z
" style="fill:#008000;"/>
   </g>
   <g id="patch_87">
    <path clip-path="url(#p22b61b7972)" d="M 809.442149 315 
L 816.359504 315 
L 816.359504 90.684887 
L 809.442149 90.684887 
z
" style="fill:#008000;"/>
   </g>
   <g id="patch_88">
    <path clip-path="url(#p22b61b7972)" d="M 816.359504 315 
L 823.27686 315 
L 823.27686 80.280661 
L 816.359504 80.280661 
z
" style="fill:#008000;"/>
   </g>
   <g id="patch_89">
    <path clip-path="url(#p22b61b7972)" d="M 823.27686 315 
L 830.194215 315 
L 830.194215 106.499311 
L 823.27686 106.499311 
z
" style="fill:#008000;"/>
   </g>
   <g id="patch_90">
    <path clip-path="url(#p22b61b7972)" d="M 830.194215 315 
L 837.11157 315 
L 837.11157 105.250804 
L 830.194215 105.250804 
z
" style="fill:#008000;"/>
   </g>
   <g id="patch_91">
    <path clip-path="url(#p22b61b7972)" d="M 837.11157 315 
L 844.028926 315 
L 844.028926 142.289848 
L 837.11157 142.289848 
z
" style="fill:#008000;"/>
   </g>
   <g id="patch_92">
    <path clip-path="url(#p22b61b7972)" d="M 844.028926 315 
L 850.946281 315 
L 850.946281 166.011484 
L 844.028926 166.011484 
z
" style="fill:#008000;"/>
   </g>
   <g id="patch_93">
    <path clip-path="url(#p22b61b7972)" d="M 850.946281 315 
L 857.863636 315 
L 857.863636 179.328893 
L 850.946281 179.328893 
z
" style="fill:#008000;"/>
   </g>
   <g id="patch_94">
    <path clip-path="url(#p22b61b7972)" d="M 857.863636 315 
L 864.780992 315 
L 864.780992 201.385852 
L 857.863636 201.385852 
z
" style="fill:#008000;"/>
   </g>
   <g id="patch_95">
    <path clip-path="url(#p22b61b7972)" d="M 864.780992 315 
L 871.698347 315 
L 871.698347 220.529628 
L 864.780992 220.529628 
z
" style="fill:#008000;"/>
   </g>
   <g id="patch_96">
    <path clip-path="url(#p22b61b7972)" d="M 871.698347 315 
L 878.615702 315 
L 878.615702 245.083601 
L 871.698347 245.083601 
z
" style="fill:#008000;"/>
   </g>
   <g id="patch_97">
    <path clip-path="url(#p22b61b7972)" d="M 878.615702 315 
L 885.533058 315 
L 885.533058 258.81718 
L 878.615702 258.81718 
z
" style="fill:#008000;"/>
   </g>
   <g id="patch_98">
    <path clip-path="url(#p22b61b7972)" d="M 885.533058 315 
L 892.450413 315 
L 892.450413 272.966927 
L 885.533058 272.966927 
z
" style="fill:#008000;"/>
   </g>
   <g id="patch_99">
    <path clip-path="url(#p22b61b7972)" d="M 892.450413 315 
L 899.367769 315 
L 899.367769 278.377124 
L 892.450413 278.377124 
z
" style="fill:#008000;"/>
   </g>
   <g id="patch_100">
    <path clip-path="url(#p22b61b7972)" d="M 899.367769 315 
L 906.285124 315 
L 906.285124 288.365181 
L 899.367769 288.365181 
z
" style="fill:#008000;"/>
   </g>
   <g id="patch_101">
    <path clip-path="url(#p22b61b7972)" d="M 906.285124 315 
L 913.202479 315 
L 913.202479 299.185576 
L 906.285124 299.185576 
z
" style="fill:#008000;"/>
   </g>
   <g id="patch_102">
    <path clip-path="url(#p22b61b7972)" d="M 913.202479 315 
L 920.119835 315 
L 920.119835 307.092788 
L 913.202479 307.092788 
z
" style="fill:#008000;"/>
   </g>
   <g id="patch_103">
    <path clip-path="url(#p22b61b7972)" d="M 920.119835 315 
L 927.03719 315 
L 927.03719 308.757464 
L 920.119835 308.757464 
z
" style="fill:#008000;"/>
   </g>
   <g id="patch_104">
    <path clip-path="url(#p22b61b7972)" d="M 927.03719 315 
L 933.954545 315 
L 933.954545 310.83831 
L 927.03719 310.83831 
z
" style="fill:#008000;"/>
   </g>
   <g id="patch_105">
    <path clip-path="url(#p22b61b7972)" d="M 933.954545 315 
L 940.871901 315 
L 940.871901 310.83831 
L 933.954545 310.83831 
z
" style="fill:#008000;"/>
   </g>
   <g id="patch_106">
    <path clip-path="url(#p22b61b7972)" d="M 940.871901 315 
L 947.789256 315 
L 947.789256 312.919155 
L 940.871901 312.919155 
z
" style="fill:#008000;"/>
   </g>
   <g id="patch_107">
    <path clip-path="url(#p22b61b7972)" d="M 947.789256 315 
L 954.706612 315 
L 954.706612 312.086817 
L 947.789256 312.086817 
z
" style="fill:#008000;"/>
   </g>
   <g id="matplotlib.axis_3">
    <g id="xtick_9">
     <g id="line2d_18">
      <g>
       <use style="stroke:#000000;stroke-width:0.8;" x="615.914838" xlink:href="#mb261cb09e4" y="315"/>
      </g>
     </g>
     <g id="text_21">
      <!-- −2 -->
      <g transform="translate(608.543745 329.598437)scale(0.1 -0.1)">
       <use xlink:href="#DejaVuSans-8722"/>
       <use x="83.789062" xlink:href="#DejaVuSans-50"/>
      </g>
     </g>
    </g>
    <g id="xtick_10">
     <g id="line2d_19">
      <g>
       <use style="stroke:#000000;stroke-width:0.8;" x="662.331455" xlink:href="#mb261cb09e4" y="315"/>
      </g>
     </g>
     <g id="text_22">
      <!-- −1 -->
      <g transform="translate(654.960362 329.598437)scale(0.1 -0.1)">
       <use xlink:href="#DejaVuSans-8722"/>
       <use x="83.789062" xlink:href="#DejaVuSans-49"/>
      </g>
     </g>
    </g>
    <g id="xtick_11">
     <g id="line2d_20">
      <g>
       <use style="stroke:#000000;stroke-width:0.8;" x="708.748072" xlink:href="#mb261cb09e4" y="315"/>
      </g>
     </g>
     <g id="text_23">
      <!-- 0 -->
      <g transform="translate(705.566822 329.598437)scale(0.1 -0.1)">
       <use xlink:href="#DejaVuSans-48"/>
      </g>
     </g>
    </g>
    <g id="xtick_12">
     <g id="line2d_21">
      <g>
       <use style="stroke:#000000;stroke-width:0.8;" x="755.164689" xlink:href="#mb261cb09e4" y="315"/>
      </g>
     </g>
     <g id="text_24">
      <!-- 1 -->
      <g transform="translate(751.983439 329.598437)scale(0.1 -0.1)">
       <use xlink:href="#DejaVuSans-49"/>
      </g>
     </g>
    </g>
    <g id="xtick_13">
     <g id="line2d_22">
      <g>
       <use style="stroke:#000000;stroke-width:0.8;" x="801.581306" xlink:href="#mb261cb09e4" y="315"/>
      </g>
     </g>
     <g id="text_25">
      <!-- 2 -->
      <g transform="translate(798.400056 329.598437)scale(0.1 -0.1)">
       <use xlink:href="#DejaVuSans-50"/>
      </g>
     </g>
    </g>
    <g id="xtick_14">
     <g id="line2d_23">
      <g>
       <use style="stroke:#000000;stroke-width:0.8;" x="847.997923" xlink:href="#mb261cb09e4" y="315"/>
      </g>
     </g>
     <g id="text_26">
      <!-- 3 -->
      <g transform="translate(844.816673 329.598437)scale(0.1 -0.1)">
       <use xlink:href="#DejaVuSans-51"/>
      </g>
     </g>
    </g>
    <g id="xtick_15">
     <g id="line2d_24">
      <g>
       <use style="stroke:#000000;stroke-width:0.8;" x="894.41454" xlink:href="#mb261cb09e4" y="315"/>
      </g>
     </g>
     <g id="text_27">
      <!-- 4 -->
      <g transform="translate(891.23329 329.598437)scale(0.1 -0.1)">
       <use xlink:href="#DejaVuSans-52"/>
      </g>
     </g>
    </g>
    <g id="xtick_16">
     <g id="line2d_25">
      <g>
       <use style="stroke:#000000;stroke-width:0.8;" x="940.831157" xlink:href="#mb261cb09e4" y="315"/>
      </g>
     </g>
     <g id="text_28">
      <!-- 5 -->
      <g transform="translate(937.649907 329.598437)scale(0.1 -0.1)">
       <use xlink:href="#DejaVuSans-53"/>
      </g>
     </g>
    </g>
    <g id="text_29">
     <!-- x -->
     <g transform="translate(778.813352 343.276563)scale(0.1 -0.1)">
      <use xlink:href="#DejaVuSans-120"/>
     </g>
    </g>
   </g>
   <g id="matplotlib.axis_4">
    <g id="ytick_10">
     <g id="line2d_26">
      <g>
       <use style="stroke:#000000;stroke-width:0.8;" x="591.545455" xlink:href="#md165a128a0" y="315"/>
      </g>
     </g>
     <g id="text_30">
      <!-- 0 -->
      <g transform="translate(578.182955 318.799219)scale(0.1 -0.1)">
       <use xlink:href="#DejaVuSans-48"/>
      </g>
     </g>
    </g>
    <g id="ytick_11">
     <g id="line2d_27">
      <g>
       <use style="stroke:#000000;stroke-width:0.8;" x="591.545455" xlink:href="#md165a128a0" y="273.383096"/>
      </g>
     </g>
     <g id="text_31">
      <!-- 100 -->
      <g transform="translate(565.457955 277.182315)scale(0.1 -0.1)">
       <use xlink:href="#DejaVuSans-49"/>
       <use x="63.623047" xlink:href="#DejaVuSans-48"/>
       <use x="127.246094" xlink:href="#DejaVuSans-48"/>
      </g>
     </g>
    </g>
    <g id="ytick_12">
     <g id="line2d_28">
      <g>
       <use style="stroke:#000000;stroke-width:0.8;" x="591.545455" xlink:href="#md165a128a0" y="231.766192"/>
      </g>
     </g>
     <g id="text_32">
      <!-- 200 -->
      <g transform="translate(565.457955 235.565411)scale(0.1 -0.1)">
       <use xlink:href="#DejaVuSans-50"/>
       <use x="63.623047" xlink:href="#DejaVuSans-48"/>
       <use x="127.246094" xlink:href="#DejaVuSans-48"/>
      </g>
     </g>
    </g>
    <g id="ytick_13">
     <g id="line2d_29">
      <g>
       <use style="stroke:#000000;stroke-width:0.8;" x="591.545455" xlink:href="#md165a128a0" y="190.149288"/>
      </g>
     </g>
     <g id="text_33">
      <!-- 300 -->
      <g transform="translate(565.457955 193.948507)scale(0.1 -0.1)">
       <use xlink:href="#DejaVuSans-51"/>
       <use x="63.623047" xlink:href="#DejaVuSans-48"/>
       <use x="127.246094" xlink:href="#DejaVuSans-48"/>
      </g>
     </g>
    </g>
    <g id="ytick_14">
     <g id="line2d_30">
      <g>
       <use style="stroke:#000000;stroke-width:0.8;" x="591.545455" xlink:href="#md165a128a0" y="148.532384"/>
      </g>
     </g>
     <g id="text_34">
      <!-- 400 -->
      <g transform="translate(565.457955 152.331603)scale(0.1 -0.1)">
       <use xlink:href="#DejaVuSans-52"/>
       <use x="63.623047" xlink:href="#DejaVuSans-48"/>
       <use x="127.246094" xlink:href="#DejaVuSans-48"/>
      </g>
     </g>
    </g>
    <g id="ytick_15">
     <g id="line2d_31">
      <g>
       <use style="stroke:#000000;stroke-width:0.8;" x="591.545455" xlink:href="#md165a128a0" y="106.91548"/>
      </g>
     </g>
     <g id="text_35">
      <!-- 500 -->
      <g transform="translate(565.457955 110.714699)scale(0.1 -0.1)">
       <use xlink:href="#DejaVuSans-53"/>
       <use x="63.623047" xlink:href="#DejaVuSans-48"/>
       <use x="127.246094" xlink:href="#DejaVuSans-48"/>
      </g>
     </g>
    </g>
    <g id="ytick_16">
     <g id="line2d_32">
      <g>
       <use style="stroke:#000000;stroke-width:0.8;" x="591.545455" xlink:href="#md165a128a0" y="65.298576"/>
      </g>
     </g>
     <g id="text_36">
      <!-- 600 -->
      <defs>
       <path d="M 33.015625 40.375 
Q 26.375 40.375 22.484375 35.828125 
Q 18.609375 31.296875 18.609375 23.390625 
Q 18.609375 15.53125 22.484375 10.953125 
Q 26.375 6.390625 33.015625 6.390625 
Q 39.65625 6.390625 43.53125 10.953125 
Q 47.40625 15.53125 47.40625 23.390625 
Q 47.40625 31.296875 43.53125 35.828125 
Q 39.65625 40.375 33.015625 40.375 
z
M 52.59375 71.296875 
L 52.59375 62.3125 
Q 48.875 64.0625 45.09375 64.984375 
Q 41.3125 65.921875 37.59375 65.921875 
Q 27.828125 65.921875 22.671875 59.328125 
Q 17.53125 52.734375 16.796875 39.40625 
Q 19.671875 43.65625 24.015625 45.921875 
Q 28.375 48.1875 33.59375 48.1875 
Q 44.578125 48.1875 50.953125 41.515625 
Q 57.328125 34.859375 57.328125 23.390625 
Q 57.328125 12.15625 50.6875 5.359375 
Q 44.046875 -1.421875 33.015625 -1.421875 
Q 20.359375 -1.421875 13.671875 8.265625 
Q 6.984375 17.96875 6.984375 36.375 
Q 6.984375 53.65625 15.1875 63.9375 
Q 23.390625 74.21875 37.203125 74.21875 
Q 40.921875 74.21875 44.703125 73.484375 
Q 48.484375 72.75 52.59375 71.296875 
z
" id="DejaVuSans-54"/>
      </defs>
      <g transform="translate(565.457955 69.097795)scale(0.1 -0.1)">
       <use xlink:href="#DejaVuSans-54"/>
       <use x="63.623047" xlink:href="#DejaVuSans-48"/>
       <use x="127.246094" xlink:href="#DejaVuSans-48"/>
      </g>
     </g>
    </g>
    <g id="text_37">
     <!-- y -->
     <g transform="translate(559.378267 182.059375)rotate(-90)scale(0.1 -0.1)">
      <use xlink:href="#DejaVuSans-121"/>
     </g>
    </g>
   </g>
   <g id="patch_108">
    <path d="M 591.545455 315 
L 591.545455 43.2 
" style="fill:none;stroke:#000000;stroke-linecap:square;stroke-linejoin:miter;stroke-width:0.8;"/>
   </g>
   <g id="patch_109">
    <path d="M 972 315 
L 972 43.2 
" style="fill:none;stroke:#000000;stroke-linecap:square;stroke-linejoin:miter;stroke-width:0.8;"/>
   </g>
   <g id="patch_110">
    <path d="M 591.545455 315 
L 972 315 
" style="fill:none;stroke:#000000;stroke-linecap:square;stroke-linejoin:miter;stroke-width:0.8;"/>
   </g>
   <g id="patch_111">
    <path d="M 591.545455 43.2 
L 972 43.2 
" style="fill:none;stroke:#000000;stroke-linecap:square;stroke-linejoin:miter;stroke-width:0.8;"/>
   </g>
   <g id="text_38">
    <!-- title -->
    <g transform="translate(770.042727 37.2)scale(0.12 -0.12)">
     <use xlink:href="#DejaVuSans-116"/>
     <use x="39.208984" xlink:href="#DejaVuSans-105"/>
     <use x="66.992188" xlink:href="#DejaVuSans-116"/>
     <use x="106.201172" xlink:href="#DejaVuSans-108"/>
     <use x="133.984375" xlink:href="#DejaVuSans-101"/>
    </g>
   </g>
  </g>
 </g>
 <defs>
  <clipPath id="p0751c0faaf">
   <rect height="271.8" width="380.454545" x="135" y="43.2"/>
  </clipPath>
  <clipPath id="p22b61b7972">
   <rect height="271.8" width="380.454545" x="591.545455" y="43.2"/>
  </clipPath>
 </defs>
</svg>
